<?xml version="1.0" encoding="UTF-8" standalone="no"?>
<svg
   sodipodi:docname="chats.svg"
   inkscape:version="1.2.1 (9c6d41e410, 2022-07-14)"
   id="svg8"
   version="1.1"
   viewBox="0 0 185.20834 185.20833"
   height="700"
   width="700"
   xmlns:inkscape="http://www.inkscape.org/namespaces/inkscape"
   xmlns:sodipodi="http://sodipodi.sourceforge.net/DTD/sodipodi-0.dtd"
   xmlns="http://www.w3.org/2000/svg"
   xmlns:svg="http://www.w3.org/2000/svg"
   xmlns:rdf="http://www.w3.org/1999/02/22-rdf-syntax-ns#"
   xmlns:cc="http://creativecommons.org/ns#"
   xmlns:dc="http://purl.org/dc/elements/1.1/">
  <defs
     id="defs2">
    <clipPath
       clipPathUnits="userSpaceOnUse"
       id="clipPath34">
      <path
         d="M 0,999 H 1920 V 0 H 0 Z"
         id="path32"
         inkscape:connector-curvature="0" />
    </clipPath>
  </defs>
  <sodipodi:namedview
     inkscape:window-maximized="1"
     inkscape:window-y="-9"
     inkscape:window-x="-9"
     inkscape:window-height="1051"
     inkscape:window-width="1920"
     showgrid="false"
     inkscape:document-rotation="0"
     inkscape:current-layer="g18"
     inkscape:document-units="mm"
     inkscape:cy="394.12364"
     inkscape:cx="593.09457"
     inkscape:zoom="1.1785642"
     inkscape:pageshadow="2"
     inkscape:pageopacity="0.0"
     borderopacity="1.0"
     bordercolor="#666666"
     pagecolor="#ffffff"
     id="base"
     fit-margin-top="0"
     fit-margin-left="0"
     fit-margin-right="0"
     fit-margin-bottom="0"
     units="px"
     showguides="false"
     inkscape:guide-bbox="true"
     inkscape:showpageshadow="0"
     inkscape:pagecheckerboard="0"
     inkscape:deskcolor="#d1d1d1">
    <sodipodi:guide
       position="100.16369,228.29761"
       orientation="1,0"
       id="guide1763"
       inkscape:locked="false" />
  </sodipodi:namedview>
  <metadata
     id="metadata5">
    <rdf:RDF>
      <cc:Work
         rdf:about="">
        <dc:format>image/svg+xml</dc:format>
        <dc:type
           rdf:resource="http://purl.org/dc/dcmitype/StillImage" />
        <dc:title />
      </cc:Work>
    </rdf:RDF>
  </metadata>
  <g
     id="layer1"
     inkscape:groupmode="layer"
     inkscape:label="Ebene 1"
     transform="translate(-51.896134,-20.454917)">
    <g
       id="g18"
       inkscape:label="hud"
       transform="matrix(0.35277777,0,0,-0.35277777,-80.257029,222.86595)">
      <g
         id="g76"
         transform="matrix(1.6541976,0,0,1.6541976,865.59223,439.7941)"
         style="fill-opacity:1;fill:#4bffaa;stroke-width:1.71360769;stroke-dasharray:none;stroke:#00cd87;stroke-opacity:1">
        <path
           inkscape:connector-curvature="0"
           d="m 0,0 -67.245,-38.828 v -77.725 L 0,-155.376 Z"
           style="fill:#4bffaa;fill-opacity:1;fill-rule:nonzero;stroke:#00cd87;stroke-width:1.71360769;stroke-dasharray:none;stroke-opacity:1"
           id="path78" />
      </g>
      <g
         id="g84"
         transform="matrix(1.6541976,0,0,1.6541976,803.39572,344.62116)"
         style="fill:#000000;fill-opacity:1">
        <path
           inkscape:connector-curvature="0"
           d="m 0,0 c 6.868,0 12.599,-3.966 14.54,-9.383 0.006,-0.021 0.021,-0.035 0.028,-0.056 0.01,-0.029 0.017,-0.057 0.028,-0.084 0.123,-0.357 0.222,-0.706 0.31,-1.072 0.063,-0.254 0.095,-0.5 0.141,-0.76 0.01,-0.067 0.017,-0.13 0.028,-0.198 0.039,-0.239 0.088,-0.489 0.113,-0.732 0.003,-0.035 -0.004,-0.077 0,-0.113 0.028,-0.341 0.056,-0.694 0.056,-1.042 0,-0.462 -0.032,-0.902 -0.084,-1.353 -0.054,-0.458 -0.124,-0.909 -0.226,-1.353 -0.204,-0.874 -0.514,-1.705 -0.902,-2.507 -0.387,-0.803 -0.856,-1.568 -1.408,-2.283 -0.275,-0.356 -0.589,-0.711 -0.902,-1.043 -0.314,-0.331 -0.638,-0.655 -0.987,-0.958 -0.341,-0.299 -0.697,-0.602 -1.07,-0.873 -1.895,-1.37 -4.185,-2.342 -6.678,-2.79 -0.997,-0.179 -2.015,-0.282 -3.072,-0.282 -0.609,0 -1.215,0.032 -1.803,0.085 -0.029,0.004 -0.056,-0.004 -0.085,0 -0.077,0.007 -0.151,0.022 -0.225,0.028 -0.208,0.025 -0.423,0.053 -0.62,0.084 -0.268,0.043 -0.514,0.085 -0.761,0.142 l -0.281,0.084 -0.283,-0.112 c -1.162,-0.49 -3.532,-1.487 -5.917,-2.142 -1.194,-0.327 -2.398,-0.574 -3.409,-0.648 -0.448,-0.032 -0.634,0.102 -0.987,0.141 0.289,0.225 0.532,0.405 0.902,0.704 1.201,0.98 2.68,2.396 3.156,4.509 l 0.113,0.535 -0.395,0.367 c -2.884,2.461 -4.649,5.888 -4.649,9.665 C -15.329,-6.058 -8.496,0 0,0 m 0,1.804 c -9.359,0 -17.132,-6.756 -17.132,-15.244 0,-4.108 1.842,-7.831 4.79,-10.567 -0.433,-1.279 -1.353,-2.297 -2.339,-3.099 -0.549,-0.448 -1.085,-0.832 -1.522,-1.212 -0.218,-0.191 -0.419,-0.36 -0.591,-0.62 -0.173,-0.261 -0.349,-0.711 -0.226,-1.156 l 0.113,-0.338 0.31,-0.197 c 0.937,-0.532 2.075,-0.592 3.269,-0.507 1.194,0.084 2.483,0.356 3.747,0.704 1.744,0.479 3.237,1.05 4.48,1.55 2.516,-5.833 8.782,-9.722 15.921,-9.722 1.212,0 2.434,0.166 3.578,0.338 1.233,-0.546 6.612,-2.845 10.342,-2.845 1.071,0 1.902,0.19 2.564,0.563 l 0.338,0.197 0.085,0.338 c 0.264,0.966 -0.553,1.642 -1.606,2.481 -1.06,0.842 -2.462,1.962 -3.072,3.521 3.072,2.832 4.819,6.679 4.819,10.652 0,6.488 -4.734,12.349 -11.553,14.427 C 14.163,-2.68 7.625,1.804 0,1.804"
           style="fill:#000000;fill-opacity:1;fill-rule:nonzero;stroke:none"
           id="path86" />
      </g>
    </g>
  </g>
</svg>
