<?xml version="1.0" encoding="UTF-8" standalone="no"?>
<!-- Created with Inkscape (http://www.inkscape.org/) -->

<svg
   xmlns:dc="http://purl.org/dc/elements/1.1/"
   xmlns:cc="http://creativecommons.org/ns#"
   xmlns:rdf="http://www.w3.org/1999/02/22-rdf-syntax-ns#"
   xmlns:svg="http://www.w3.org/2000/svg"
   xmlns="http://www.w3.org/2000/svg"
   xmlns:sodipodi="http://sodipodi.sourceforge.net/DTD/sodipodi-0.dtd"
   xmlns:inkscape="http://www.inkscape.org/namespaces/inkscape"
   width="47.845131mm"
   height="55.245239mm"
   viewBox="0 0 47.845132 55.245239"
   version="1.1"
   id="svg893"
   inkscape:version="0.92.4 (5da689c313, 2019-01-14)"
   sodipodi:docname="unmuted_overlay.svg">
  <defs
     id="defs887" />
  <sodipodi:namedview
     id="base"
     pagecolor="#ffffff"
     bordercolor="#666666"
     borderopacity="1.0"
     inkscape:pageopacity="0.0"
     inkscape:pageshadow="2"
     inkscape:zoom="3.959798"
     inkscape:cx="104.85364"
     inkscape:cy="100.00563"
     inkscape:document-units="mm"
     inkscape:current-layer="layer1"
     showgrid="false"
     fit-margin-top="0"
     fit-margin-left="0"
     fit-margin-right="0"
     fit-margin-bottom="0"
     inkscape:window-width="1920"
     inkscape:window-height="1027"
     inkscape:window-x="1072"
     inkscape:window-y="-8"
     inkscape:window-maximized="1" />
  <metadata
     id="metadata890">
    <rdf:RDF>
      <cc:Work
         rdf:about="">
        <dc:format>image/svg+xml</dc:format>
        <dc:type
           rdf:resource="http://purl.org/dc/dcmitype/StillImage" />
        <dc:title></dc:title>
      </cc:Work>
    </rdf:RDF>
  </metadata>
  <g
     inkscape:label="Ebene 1"
     inkscape:groupmode="layer"
     id="layer1"
     transform="translate(-133.76671,-323.08089)">
    <g
       style="fill:#32cd32"
       transform="matrix(0.35277777,0,0,-0.35277777,157.68963,323.28456)"
       id="g48">
      <path
         style="fill:#32cd32;fill-opacity:1;fill-rule:nonzero;stroke:none;stroke-width:1.33333325"
         d="M 90.417969 0.76953125 L 0.66601562 52.583984 L 0.66601562 156.21484 L 90.417969 208.03125 L 180.16602 156.2168 L 180.16602 52.583984 L 90.417969 0.76953125 z M 91.230469 53.679688 C 103.43196 53.679688 113.3125 63.285858 113.3125 75.197266 L 113.3125 75.761719 L 98.255859 75.761719 C 97.142335 75.761719 96.248047 76.66383 96.248047 77.769531 C 96.248047 78.875156 97.142335 79.777344 98.255859 79.777344 L 113.3125 79.777344 L 113.3125 83.792969 L 98.255859 83.792969 C 97.142335 83.792969 96.248047 84.693165 96.248047 85.798828 C 96.248047 86.904529 97.142335 87.806641 98.255859 87.806641 L 113.3125 87.806641 L 113.3125 91.822266 L 98.255859 91.822266 C 97.142335 91.822266 96.248047 92.724415 96.248047 93.830078 C 96.248047 94.935741 97.142335 95.835938 98.255859 95.835938 L 113.3125 95.835938 L 113.3125 100.41602 C 113.3125 112.32739 103.43196 121.93359 91.230469 121.93359 C 79.028944 121.93359 69.148438 112.32739 69.148438 100.41602 L 69.148438 95.835938 L 84.203125 95.835938 C 85.308826 95.835938 86.210938 94.935741 86.210938 93.830078 C 86.210938 92.724415 85.308826 91.822266 84.203125 91.822266 L 69.148438 91.822266 L 69.148438 87.806641 L 84.203125 87.806641 C 85.308826 87.806641 86.210938 86.904529 86.210938 85.798828 C 86.210938 84.693165 85.308826 83.792969 84.203125 83.792969 L 69.148438 83.792969 L 69.148438 79.777344 L 84.203125 79.777344 C 85.308826 79.777344 86.210938 78.875156 86.210938 77.769531 C 86.210938 76.66383 85.308826 75.761719 84.203125 75.761719 L 69.148438 75.761719 L 69.148438 75.197266 C 69.148438 63.285858 79.028944 53.679688 91.230469 53.679688 z M 61.302734 88.052734 C 61.671029 88.088389 62.020404 88.245196 62.302734 88.498047 C 62.671465 88.835256 62.882559 89.31257 62.875 89.814453 L 62.875 99.851562 C 62.875 115.51124 75.57079 128.20703 91.230469 128.20703 C 106.89011 128.20703 119.58594 115.51124 119.58594 99.851562 L 119.58594 89.814453 C 119.58594 88.842094 120.36944 88.058594 121.3418 88.058594 C 122.31416 88.058594 123.09766 88.842094 123.09766 89.814453 L 123.09766 99.851562 C 123.09766 115.33874 111.93145 128.32542 97.251953 131.15625 L 97.251953 142.00781 L 85.207031 142.00781 L 85.207031 131.15625 C 70.527573 128.32542 59.361328 115.33874 59.361328 99.851562 L 59.361328 89.814453 C 59.337819 88.975398 59.918817 88.23094 60.742188 88.058594 L 60.929688 88.058594 C 61.055149 88.042899 61.179969 88.04085 61.302734 88.052734 z M 72.158203 146.02344 L 110.17578 146.02344 C 114.01816 146.02344 117.13871 149.15963 117.13867 152.98633 L 117.07617 153.92773 L 65.132812 154.05273 L 65.195312 152.98633 C 65.195312 149.15963 68.315822 146.02344 72.158203 146.02344 z "
         transform="matrix(0.75000002,0,0,-0.75000002,-67.813003,0.5773323)"
         id="path50" />
    </g>
    <g
       transform="matrix(0.35277777,0,0,-0.35277777,157.68963,323.28456)"
       id="g52">
      <path
         inkscape:connector-curvature="0"
         id="path54"
         style="fill:none;stroke:#000000;stroke-width:1;stroke-linecap:butt;stroke-linejoin:miter;stroke-miterlimit:10;stroke-dasharray:none;stroke-opacity:1"
         d="m 0,0 -67.313,-38.86 v -77.724 L 0,-155.446 l 67.311,38.861 v 77.725 z" />
    </g>
  </g>
</svg>
