<?xml version="1.0" encoding="UTF-8" standalone="no"?>
<svg
   sodipodi:docname="alerts.svg"
   inkscape:version="1.2.1 (9c6d41e410, 2022-07-14)"
   id="svg8"
   version="1.1"
   viewBox="0 0 185.20834 185.20833"
   height="700"
   width="700"
   xmlns:inkscape="http://www.inkscape.org/namespaces/inkscape"
   xmlns:sodipodi="http://sodipodi.sourceforge.net/DTD/sodipodi-0.dtd"
   xmlns="http://www.w3.org/2000/svg"
   xmlns:svg="http://www.w3.org/2000/svg"
   xmlns:rdf="http://www.w3.org/1999/02/22-rdf-syntax-ns#"
   xmlns:cc="http://creativecommons.org/ns#"
   xmlns:dc="http://purl.org/dc/elements/1.1/">
  <defs
     id="defs2">
    <clipPath
       clipPathUnits="userSpaceOnUse"
       id="clipPath34">
      <path
         d="M 0,999 H 1920 V 0 H 0 Z"
         id="path32"
         inkscape:connector-curvature="0" />
    </clipPath>
  </defs>
  <sodipodi:namedview
     inkscape:window-maximized="1"
     inkscape:window-y="-9"
     inkscape:window-x="-9"
     inkscape:window-height="1051"
     inkscape:window-width="1920"
     showgrid="false"
     inkscape:document-rotation="0"
     inkscape:current-layer="g18"
     inkscape:document-units="mm"
     inkscape:cy="324.76404"
     inkscape:cx="85.862967"
     inkscape:zoom="0.98994949"
     inkscape:pageshadow="2"
     inkscape:pageopacity="0.0"
     borderopacity="1.0"
     bordercolor="#666666"
     pagecolor="#ffffff"
     id="base"
     fit-margin-top="0"
     fit-margin-left="0"
     fit-margin-right="0"
     fit-margin-bottom="0"
     units="px"
     showguides="false"
     inkscape:guide-bbox="true"
     inkscape:showpageshadow="0"
     inkscape:pagecheckerboard="0"
     inkscape:deskcolor="#d1d1d1">
    <sodipodi:guide
       position="100.16369,228.29761"
       orientation="1,0"
       id="guide1763"
       inkscape:locked="false" />
  </sodipodi:namedview>
  <metadata
     id="metadata5">
    <rdf:RDF>
      <cc:Work
         rdf:about="">
        <dc:format>image/svg+xml</dc:format>
        <dc:type
           rdf:resource="http://purl.org/dc/dcmitype/StillImage" />
        <dc:title />
      </cc:Work>
    </rdf:RDF>
  </metadata>
  <g
     id="layer1"
     inkscape:groupmode="layer"
     inkscape:label="Ebene 1"
     transform="translate(-51.896134,-20.454917)">
    <g
       id="g18"
       inkscape:label="hud"
       transform="matrix(0.35277777,0,0,-0.35277777,-80.257029,222.86595)">
      <g
         id="g108"
         transform="matrix(1.6541976,0,0,1.6541976,524.6272,242.93334)"
         style="stroke-width:1.71360769;stroke-dasharray:none;stroke:#cc0000;stroke-opacity:1;fill:#ff0000;fill-opacity:1">
        <path
           inkscape:connector-curvature="0"
           d="m 0,0 -67.245,-38.827 134.556,-77.687 v 77.648 z"
           style="fill:#ff0000;fill-opacity:1;fill-rule:nonzero;stroke:#cc0000;stroke-width:1.71360769;stroke-dasharray:none;stroke-opacity:1"
           id="path110" />
      </g>
      <g
         id="g116"
         transform="matrix(1.6541976,0,0,1.6541976,555.18138,160.71128)"
         style="fill:#000000;fill-opacity:1">
        <path
           inkscape:connector-curvature="0"
           d="m 0,0 c 0,-0.518 -0.42,-0.937 -0.937,-0.937 h -1.877 c -0.519,0 -0.936,0.419 -0.936,0.937 v 13.124 c 0,0.518 0.419,0.938 0.936,0.938 h 1.878 C -0.418,14.062 0,13.642 0,13.124 Z m 0,-6.562 c 0,-0.517 -0.418,-0.937 -0.935,-0.937 h -1.879 c -0.517,0 -0.936,0.42 -0.936,0.937 v 1.875 c 0,0.517 0.419,0.937 0.936,0.937 h 1.878 C -0.418,-3.75 0,-4.17 0,-4.687 Z M 20.241,-8.809 0.597,25.74 c -0.514,0.905 -1.438,1.445 -2.472,1.445 -1.034,0 -1.958,-0.54 -2.471,-1.445 L -23.991,-8.809 c -0.517,-0.908 -0.511,-1.991 0.015,-2.894 0.518,-0.89 1.435,-1.421 2.457,-1.421 H 17.77 c 1.021,0 1.939,0.531 2.457,1.421 0.526,0.903 0.532,1.984 0.014,2.894"
           style="fill:#000000;fill-opacity:1;fill-rule:nonzero;stroke:none"
           id="path118" />
      </g>
    </g>
  </g>
</svg>
