<?xml version="1.0" encoding="UTF-8" standalone="no"?>
<svg
   viewBox="0 0 240 240"
   width="240px"
   height="240px"
   version="1.1"
   id="svg5"
   sodipodi:docname="icons8-chain_red.svg"
   inkscape:version="1.2.1 (9c6d41e410, 2022-07-14)"
   xmlns:inkscape="http://www.inkscape.org/namespaces/inkscape"
   xmlns:sodipodi="http://sodipodi.sourceforge.net/DTD/sodipodi-0.dtd"
   xmlns="http://www.w3.org/2000/svg"
   xmlns:svg="http://www.w3.org/2000/svg"
   xmlns:rdf="http://www.w3.org/1999/02/22-rdf-syntax-ns#"
   xmlns:cc="http://creativecommons.org/ns#"
   xmlns:dc="http://purl.org/dc/elements/1.1/">
  <metadata
     id="metadata11">
    <rdf:RDF>
      <cc:Work
         rdf:about="">
        <dc:format>image/svg+xml</dc:format>
        <dc:type
           rdf:resource="http://purl.org/dc/dcmitype/StillImage" />
        <dc:title />
      </cc:Work>
    </rdf:RDF>
  </metadata>
  <defs
     id="defs9" />
  <sodipodi:namedview
     pagecolor="#ffffff"
     bordercolor="#666666"
     borderopacity="1"
     objecttolerance="10"
     gridtolerance="10"
     guidetolerance="10"
     inkscape:pageopacity="0"
     inkscape:pageshadow="2"
     inkscape:window-width="1920"
     inkscape:window-height="1051"
     id="namedview7"
     showgrid="false"
     inkscape:zoom="2.9089874"
     inkscape:cx="137.33301"
     inkscape:cy="111.55085"
     inkscape:window-x="-9"
     inkscape:window-y="-9"
     inkscape:window-maximized="1"
     inkscape:current-layer="svg5"
     inkscape:showpageshadow="0"
     inkscape:pagecheckerboard="0"
     inkscape:deskcolor="#d1d1d1" />
  <g
     id="g1903"
     transform="matrix(1.013834,0,0,1.013834,-1.6600835,-1.7378987)">
    <path
       style="fill:none;fill-opacity:1;stroke:#000000;stroke-width:1;stroke-dasharray:none;stroke-opacity:1"
       d="m 68.603224,208.50864 -50.420887,-29.1687 v -59.351 -59.350991 L 68.277934,31.671987 C 95.830504,15.740704 118.95906,2.6015988 119.67471,2.4739718 c 0.81823,-0.145928 20.01558,10.5964612 51.72207,28.9424372 l 50.42089,29.174496 v 59.396435 59.39644 l -50.42089,29.15533 c -27.73149,16.03544 -50.86004,29.15149 -51.39677,29.14678 -0.53674,-0.005 -23.665296,-13.13447 -51.396786,-29.17725 z m 97.295716,-9.38509 45.50926,-26.27237 V 119.9906 67.130033 L 165.93092,40.867053 C 140.91842,26.422418 120.26459,14.60408 120.03354,14.60408 c -0.23105,0 -20.899966,11.817993 -45.930916,26.262199 L 28.591811,67.128478 v 52.852692 52.85269 l 45.526433,26.28104 c 25.03954,14.45457 45.694056,26.28103 45.898936,26.28103 0.20488,0 20.85167,-11.82257 45.88176,-26.27238 z"
       id="path563-0"
       sodipodi:nodetypes="scccssscccscsscccssscccsss" />
    <path
       style="fill:#ff8000;fill-opacity:1;stroke:#000000;stroke-width:1.95884;stroke-linecap:round;stroke-linejoin:round;stroke-miterlimit:5.2;paint-order:stroke fill markers"
       d="m 120.03477,10.751379 94.71482,54.446016 V 174.78313 l -94.73178,54.4655 -94.767385,-54.48345 V 65.195783 Z"
       id="path1704" />
    <path
       style="fill:#803500;fill-opacity:1;stroke-width:0.650592"
       d="m 68.603227,208.50864 -50.42089,-29.1687 v -59.351 -59.350991 L 68.277931,31.671987 C 95.830507,15.740704 118.95906,2.6015988 119.67471,2.4739721 120.49294,2.3280443 139.69029,13.070433 171.39678,31.416409 l 50.42089,29.174496 v 59.396435 59.39644 l -50.42089,29.15533 c -27.73149,16.03544 -50.86004,29.15149 -51.39677,29.14678 -0.53674,-0.005 -23.665294,-13.13447 -51.396783,-29.17725 z m 97.295713,-9.38509 45.50926,-26.27237 V 119.9906 67.130033 L 165.93092,40.867053 C 140.91842,26.422418 120.26459,14.60408 120.03354,14.60408 c -0.23105,0 -20.899963,11.817993 -45.930916,26.262199 L 28.591811,67.128478 v 52.852692 52.85269 l 45.526433,26.28104 c 25.039541,14.45457 45.694056,26.28103 45.898936,26.28103 0.20488,0 20.85167,-11.82257 45.88176,-26.27238 z m -53.40333,2.26872 c -3.09271,-1.33938 -3.21801,-1.99516 -3.44514,-18.03093 -0.19457,-13.73781 -0.32139,-15.19676 -1.34928,-15.523 -0.62399,-0.19804 -1.96982,-1.23194 -2.99075,-2.29756 -1.60662,-1.67696 -1.9113,-2.6164 -2.26582,-6.98638 -0.28805,-3.55051 -0.84425,-5.75953 -1.87417,-7.4434 -1.07826,-1.76292 -1.585612,-3.90796 -1.92351,-8.13241 l -0.458947,-5.73789 -5.033501,-5.91723 -5.033501,-5.91723 0.0096,-22.38353 c 0.01054,-24.55935 0.09925,-25.182155 3.740697,-26.258976 l 2.105069,-0.62248 0.05172,-8.160514 c 0.08301,-13.094123 0.712164,-18.678623 2.233938,-19.828753 1.087179,-0.821678 4.652595,-0.978796 22.436835,-0.988724 11.62933,-0.0065 21.81469,0.167787 22.63413,0.387297 2.91614,0.781166 3.38955,3.074959 3.38955,16.423001 v 12.350347 l 1.72479,0.20586 c 0.94863,0.113223 2.25272,0.937777 2.89797,1.832341 1.04337,1.446513 1.22274,3.825904 1.62123,21.504223 0.24643,10.932758 0.23983,21.266318 -0.0147,22.963468 -0.37708,2.51453 -1.20824,3.95328 -4.49017,7.77242 -2.21508,2.57769 -4.46405,5.24348 -4.99771,5.92399 -0.60886,0.7764 -1.09974,3.33131 -1.31782,6.85889 -0.26179,4.23475 -0.68013,6.09628 -1.69574,7.54571 -0.93226,1.33047 -1.46738,3.3993 -1.73446,6.7056 -0.39115,4.84207 -1.37937,7.15979 -3.98013,9.33478 -0.74273,0.62114 -1.70134,1.13908 -2.13024,1.15099 -0.57753,0.016 -0.83068,3.98321 -0.97589,15.29374 -0.24277,18.90932 0.17774,18.09299 -9.46188,18.36832 -3.49162,0.0997 -6.94409,-0.0767 -7.67217,-0.39197 z m 9.76445,-14.54392 c 0.24016,-4.02554 0.34223,-10.10045 0.22683,-13.49979 l -0.20981,-6.18063 -2.76502,-0.20005 -2.76502,-0.20006 v 13.69984 13.69985 h 2.53819 2.53819 z m 5.3844,-25.62051 c 1.3242,-0.35487 1.46383,-0.78844 1.46383,-4.54526 v -4.15297 h -9.75888 -9.75888 v 3.92452 c 0,3.4618 0.17259,3.99389 1.46383,4.51291 1.65091,0.66358 14.34263,0.8631 16.5901,0.2608 z m 4.94981,-16.34269 c 0.22179,-1.34184 0.40648,-3.24482 0.41041,-4.22884 l 0.007,-1.78913 H 119.67454 106.3374 v 4.22885 4.22884 h 12.92672 12.92672 z m 6.20252,-16.66983 4.62453,-5.44713 V 103.16752 83.566846 H 119.26034 95.099359 l 0.480618,19.993364 0.480612,19.99335 3.999231,4.5665 c 2.19959,2.51157 4.29233,4.78158 4.65055,5.04448 0.35822,0.26289 7.13369,0.48246 15.0566,0.48794 l 14.40529,0.01 4.62453,-5.44712 z m -31.11402,-6.18128 c -0.42204,-0.78861 -0.69461,-6.11648 -0.69461,-13.57758 0,-12.983661 0.39067,-14.874835 2.97067,-14.380619 1.16938,0.223999 1.28114,1.021046 1.58348,11.293459 0.42629,14.48406 0.1306,17.49347 -1.74511,17.7605 -0.89626,0.12759 -1.67595,-0.27647 -2.11443,-1.09576 z m 10.37795,0.25809 c -0.99804,-1.20257 -1.59811,-17.78346 -0.85995,-23.761665 0.45691,-3.700432 0.70495,-4.254808 1.98495,-4.436609 1.08109,-0.153546 1.63281,0.239463 2.11442,1.506186 0.69629,1.831364 0.91873,24.898718 0.25674,26.623828 -0.49708,1.29537 -2.44617,1.33342 -3.49616,0.0683 z m 9.76928,-0.29758 c -0.39801,-0.74368 -0.67348,-6.43249 -0.67348,-13.90806 0,-13.352692 0.25748,-14.530492 3.05906,-13.993324 0.93072,0.178458 1.27415,1.153389 1.68046,4.770519 0.50376,4.484795 0.0411,21.741075 -0.62987,23.489435 -0.50682,1.32071 -2.65756,1.09629 -3.43617,-0.35857 z m 9.45348,-47.327805 c 0.49893,-3.99336 0.0163,-19.558471 -0.62643,-20.201171 -0.75477,-0.754772 -1.07725,0.325185 -1.42556,4.774116 -0.19309,2.466252 -0.48431,5.14282 -0.64715,5.947928 l -0.2961,1.463832 h -14.58753 c -10.72844,0 -14.71652,-0.208709 -15.07511,-0.788921 -0.26817,-0.433912 -0.61493,-3.215193 -0.77058,-6.180625 -0.2101,-4.003041 -0.51332,-5.391704 -1.17729,-5.391704 -0.72645,0 -0.8943,2.259064 -0.8943,12.035954 v 12.035955 h 17.51917 17.51917 z M 110.24112,58.193753 c 0,-2.168638 -0.28915,-3.903553 -0.65059,-3.903553 -0.36144,0 -0.65059,1.734915 -0.65059,3.903553 0,2.168638 0.28915,3.903553 0.65059,3.903553 0.36144,0 0.65059,-1.734915 0.65059,-3.903553 z m 6.50592,0 c 0,-2.168638 -0.28914,-3.903553 -0.65059,-3.903553 -0.36144,0 -0.65059,1.734915 -0.65059,3.903553 0,2.168638 0.28915,3.903553 0.65059,3.903553 0.36145,0 0.65059,-1.734915 0.65059,-3.903553 z m 6.50593,0 c 0,-2.168638 -0.28915,-3.903553 -0.6506,-3.903553 -0.36144,0 -0.65059,1.734915 -0.65059,3.903553 0,2.168638 0.28915,3.903553 0.65059,3.903553 0.36145,0 0.6506,-1.734915 0.6506,-3.903553 z m 6.74989,1.870452 c 0.70861,-3.54306 0.48866,-5.774005 -0.56927,-5.774005 -0.75903,0 -0.97589,0.867454 -0.97589,3.903553 0,4.169053 0.87387,5.226896 1.54516,1.870452 z"
       id="path563" />
  </g>
</svg>
