<?xml version="1.0" encoding="UTF-8" standalone="no"?>
<svg
   sodipodi:docname="smuted.svg"
   inkscape:version="1.2.1 (9c6d41e410, 2022-07-14)"
   id="svg8"
   version="1.1"
   viewBox="0 0 185.20834 185.20833"
   height="700"
   width="700"
   xml:space="preserve"
   xmlns:inkscape="http://www.inkscape.org/namespaces/inkscape"
   xmlns:sodipodi="http://sodipodi.sourceforge.net/DTD/sodipodi-0.dtd"
   xmlns="http://www.w3.org/2000/svg"
   xmlns:svg="http://www.w3.org/2000/svg"
   xmlns:rdf="http://www.w3.org/1999/02/22-rdf-syntax-ns#"
   xmlns:cc="http://creativecommons.org/ns#"
   xmlns:dc="http://purl.org/dc/elements/1.1/"><defs
     id="defs2"><clipPath
       clipPathUnits="userSpaceOnUse"
       id="clipPath34"><path
         d="M 0,999 H 1920 V 0 H 0 Z"
         id="path32"
         inkscape:connector-curvature="0" /></clipPath></defs><sodipodi:namedview
     inkscape:window-maximized="1"
     inkscape:window-y="-9"
     inkscape:window-x="-9"
     inkscape:window-height="1051"
     inkscape:window-width="1920"
     showgrid="false"
     inkscape:document-rotation="0"
     inkscape:current-layer="g18"
     inkscape:document-units="mm"
     inkscape:cy="327.83405"
     inkscape:cx="239.65217"
     inkscape:zoom="1.1850508"
     inkscape:pageshadow="2"
     inkscape:pageopacity="0.0"
     borderopacity="1.0"
     bordercolor="#666666"
     pagecolor="#ffffff"
     id="base"
     fit-margin-top="0"
     fit-margin-left="0"
     fit-margin-right="0"
     fit-margin-bottom="0"
     units="px"
     showguides="false"
     inkscape:guide-bbox="true"
     inkscape:showpageshadow="0"
     inkscape:pagecheckerboard="0"
     inkscape:deskcolor="#d1d1d1"><sodipodi:guide
       position="100.16369,228.29761"
       orientation="1,0"
       id="guide1763"
       inkscape:locked="false" /></sodipodi:namedview><metadata
     id="metadata5"><rdf:RDF><cc:Work
         rdf:about=""><dc:format>image/svg+xml</dc:format><dc:type
           rdf:resource="http://purl.org/dc/dcmitype/StillImage" /></cc:Work></rdf:RDF></metadata><g
     id="layer1"
     inkscape:groupmode="layer"
     inkscape:label="Ebene 1"
     transform="translate(-51.896134,-20.454917)"><g
       id="g18"
       inkscape:label="hud"
       transform="matrix(0.35277777,0,0,-0.35277777,-80.257029,222.86595)"><path
         inkscape:connector-curvature="0"
         d="M 638.31887,439.84659 526.97001,375.56448 V 246.99373 l 111.34886,-64.28551 111.34573,64.28381 v 128.57245 z"
         style="fill:none;fill-opacity:1;stroke:#ff0000;stroke-width:14.1732;stroke-linecap:butt;stroke-linejoin:miter;stroke-miterlimit:10;stroke-dasharray:none;stroke-opacity:1"
         id="path54-1" /><g
         id="g52"
         transform="matrix(1.6541976,0,0,1.6541976,638.31854,439.84736)" /><g
         id="g56"
         transform="matrix(1.6541976,0,0,1.6541976,617.14597,262.5154)" /><path
         inkscape:connector-curvature="0"
         d="m 638.31887,439.84659 -111.349,-64.28212 V 246.99362 l 111.349,-64.28543 111.34569,64.28377 v 128.57251 z"
         style="fill:#3b3d44;fill-opacity:1;stroke:#000000;stroke-width:11.3386;stroke-linecap:butt;stroke-linejoin:miter;stroke-miterlimit:10;stroke-dasharray:none;stroke-opacity:1"
         id="path54" /><path
         inkscape:connector-curvature="0"
         d="m 612.45685,261.68227 c -4.86003,0 -8.67461,-3.80631 -8.67461,-8.67627 v -3.71698 h 64.20768 v 3.71698 c 0,4.86996 -3.80466,8.67627 -8.67461,8.67627 z m -3.71698,59.48825 v -5.73179 c 0,-14.62145 12.14015,-26.49198 27.26283,-26.49198 3.71698,0 7.17425,0.77582 10.14685,2.01482 l -30.20731,30.20895 z m 15.95473,4.95763 h 2.63349 c 1.49043,0 2.47798,-0.98755 2.47798,-2.47798 0,-0.78575 -0.28948,-1.42261 -0.77416,-1.85932 z m -15.95473,2.2464 v -2.2464 h 2.24474 z m -9.91361,2.71123 c -1.49208,0 -2.47964,-0.98755 -2.47964,-2.47798 v -12.39325 c 0,-19.27802 13.93165,-35.45938 32.22046,-38.96297 v -10.61333 h 14.87124 v 10.61333 c 4.30753,0.85191 8.32557,2.42009 12.16,4.4928 l -3.71698,3.71698 c -4.70619,-2.47799 -10.17662,-3.95022 -15.87864,-3.95022 -19.08282,0 -34.69845,15.61893 -34.69845,34.70341 v 12.39325 c 0,1.49043 -0.98756,2.47798 -2.47799,2.47798 m 15.95474,4.95763 h 12.54709 c 1.36471,0 2.47798,-1.11327 2.47798,-2.47964 0,-1.36471 -1.11327,-2.47799 -2.47798,-2.47799 h -7.59112 z m -38.49318,37.25915 c -0.10752,-0.0199 -0.21339,-0.0496 -0.31099,-0.0778 -0.92966,-0.16542 -1.67405,-0.84198 -1.93541,-1.74352 -0.26136,-0.90981 0.01,-1.87917 0.69642,-2.51769 L 693.70442,249.98544 c 0.98756,-0.98756 2.57558,-0.98756 3.56314,0 0.98756,0.9859 0.98756,2.57393 0,3.56314 l -34.00203,34.00534 c 7.72676,7.2123 12.39325,17.45675 12.39325,28.66063 v 12.39325 c 0,1.49043 -0.98921,2.47798 -2.47964,2.47798 -1.49044,0 -2.47799,-0.98755 -2.47799,-2.47798 v -12.39325 c 0,-9.93511 -4.24137,-18.70732 -10.99711,-25.09749 l -5.03538,5.03373 c 5.40261,4.83191 8.82846,11.7845 8.82846,19.59893 v 5.4208 h -18.81981 c -1.37464,0 -2.47964,1.11493 -2.47964,2.47965 0,1.36471 1.105,2.47798 2.47964,2.47798 h 18.81981 v 4.95763 h -18.81981 c -1.37464,0 -2.47964,1.11328 -2.47964,2.47799 0,1.36637 1.105,2.47964 2.47964,2.47964 h 18.81981 v 4.95763 h -18.81981 c -1.37464,0 -2.47964,1.11328 -2.47964,2.47799 0,1.36472 1.105,2.47799 2.47964,2.47799 h 18.81981 v 0.77582 c -0.25144,14.62145 -12.37175,26.49197 -27.49442,26.49197 -15.12268,0 -27.26283,-11.87052 -27.26283,-26.49197 v -0.77582 h 18.58822 c 1.36471,0 2.47798,-1.11327 2.47798,-2.47799 0,-1.36471 -1.11327,-2.47799 -2.47798,-2.47799 h -17.50472 l -31.52239,31.5257 c -0.5128,0.5525 -1.25885,0.83372 -2.01316,0.77582"
         style="fill:#000000;fill-opacity:1;fill-rule:nonzero;stroke:none;stroke-width:1.6542"
         id="path58" /><path
         style="opacity:1;fill:#000000;fill-opacity:1;stroke:#ff0a0a;stroke-width:7.08661433;stroke-linecap:round;stroke-dasharray:none;stroke-dashoffset:2.41134;stroke-opacity:1;paint-order:stroke fill markers"
         d="M 575.97683,371.86215 696.25631,251.58268"
         id="path22201" /></g></g></svg>
