<?xml version="1.0" encoding="UTF-8" standalone="no"?>
<svg
   sodipodi:docname="votes.svg"
   inkscape:version="1.2.1 (9c6d41e410, 2022-07-14)"
   id="svg8"
   version="1.1"
   viewBox="0 0 185.20834 185.20833"
   height="700"
   width="700"
   xmlns:inkscape="http://www.inkscape.org/namespaces/inkscape"
   xmlns:sodipodi="http://sodipodi.sourceforge.net/DTD/sodipodi-0.dtd"
   xmlns="http://www.w3.org/2000/svg"
   xmlns:svg="http://www.w3.org/2000/svg"
   xmlns:rdf="http://www.w3.org/1999/02/22-rdf-syntax-ns#"
   xmlns:cc="http://creativecommons.org/ns#"
   xmlns:dc="http://purl.org/dc/elements/1.1/">
  <defs
     id="defs2">
    <clipPath
       clipPathUnits="userSpaceOnUse"
       id="clipPath34">
      <path
         d="M 0,999 H 1920 V 0 H 0 Z"
         id="path32"
         inkscape:connector-curvature="0" />
    </clipPath>
  </defs>
  <sodipodi:namedview
     inkscape:window-maximized="1"
     inkscape:window-y="-9"
     inkscape:window-x="-9"
     inkscape:window-height="1051"
     inkscape:window-width="1920"
     showgrid="false"
     inkscape:document-rotation="0"
     inkscape:current-layer="g18"
     inkscape:document-units="mm"
     inkscape:cy="324.76404"
     inkscape:cx="85.862967"
     inkscape:zoom="0.98994949"
     inkscape:pageshadow="2"
     inkscape:pageopacity="0.0"
     borderopacity="1.0"
     bordercolor="#666666"
     pagecolor="#ffffff"
     id="base"
     fit-margin-top="0"
     fit-margin-left="0"
     fit-margin-right="0"
     fit-margin-bottom="0"
     units="px"
     showguides="false"
     inkscape:guide-bbox="true"
     inkscape:showpageshadow="0"
     inkscape:pagecheckerboard="0"
     inkscape:deskcolor="#d1d1d1">
    <sodipodi:guide
       position="100.16369,228.29761"
       orientation="1,0"
       id="guide1763"
       inkscape:locked="false" />
  </sodipodi:namedview>
  <metadata
     id="metadata5">
    <rdf:RDF>
      <cc:Work
         rdf:about="">
        <dc:format>image/svg+xml</dc:format>
        <dc:type
           rdf:resource="http://purl.org/dc/dcmitype/StillImage" />
        <dc:title />
      </cc:Work>
    </rdf:RDF>
  </metadata>
  <g
     id="layer1"
     inkscape:groupmode="layer"
     inkscape:label="Ebene 1"
     transform="translate(-51.896134,-20.454917)">
    <g
       id="g18"
       inkscape:label="hud"
       transform="matrix(0.35277777,0,0,-0.35277777,-80.257029,222.86595)">
      <g
         id="g92"
         transform="matrix(1.6541976,0,0,1.6541976,752.00261,242.93168)"
         style="fill:#d500ff;fill-opacity:1;stroke-width:1.71360769;stroke-dasharray:none;stroke:#8900cc;stroke-opacity:1">
        <path
           inkscape:connector-curvature="0"
           d="m 0,0 -67.307,-38.864 v -77.647 l 134.555,77.687 z"
           style="fill:#d500ff;fill-opacity:1;fill-rule:nonzero;stroke:#8900cc;stroke-width:1.71360769;stroke-dasharray:none;stroke-opacity:1"
           id="path94" />
      </g>
      <g
         id="g100"
         transform="matrix(1.6541976,0,0,1.6541976,704.82076,162.3266)"
         style="fill:#000000;fill-opacity:1">
        <path
           inkscape:connector-curvature="0"
           d="m 0,0 c -0.417,0 -0.768,-0.282 -0.854,-0.688 l -2.644,-12.338 c -0.055,-0.262 -0.003,-0.537 0.166,-0.744 0.168,-0.207 0.42,-0.331 0.688,-0.331 h 35.25 c 0.269,0 0.52,0.124 0.689,0.331 0.169,0.207 0.22,0.482 0.165,0.744 L 30.816,-0.688 C 30.73,-0.279 30.379,0 29.963,0 h -3.525 v -5.288 c 0.971,0 1.762,-0.792 1.762,-1.763 0,-0.97 -0.791,-1.762 -1.762,-1.762 H 3.525 c -0.971,0 -1.762,0.792 -1.762,1.762 0,0.971 0.791,1.763 1.762,1.763 V 0 Z M 0.881,22.912 C 0.393,22.912 0,22.517 0,22.031 V 13.329 C 0,8.165 1.894,6.413 3.883,4.571 4.348,4.141 4.816,3.697 5.288,3.194 V -7.051 H 24.675 V 8.813 c 0,0.488 -0.392,0.88 -0.881,0.88 h -0.055 c -0.265,2.252 -1.494,4.331 -2.781,5.867 -1.436,1.711 -6.197,7.049 -6.197,7.049 -0.196,0.231 -0.499,0.348 -0.799,0.303 -0.32,-0.048 -0.588,-0.268 -0.695,-0.574 -0.11,-0.304 -0.045,-0.645 0.172,-0.885 0,0 4.771,-5.419 6.142,-7.051 1.084,-1.29 2.086,-3.039 2.368,-4.709 H 11.484 l -0.551,1.212 C 10.73,11.346 10.189,11.549 9.749,11.346 9.305,11.143 9.133,10.634 9.336,10.189 L 13.109,2.01 c 1.525,-2.857 1.807,-4.434 0.936,-5.095 -0.499,-0.378 -1.091,-0.537 -1.708,-0.44 -0.932,0.144 -1.851,0.801 -2.588,1.844 C 8.269,0.413 7.253,3.521 7.243,3.553 L 7.188,3.718 7.078,3.855 C 6.403,4.65 5.718,5.263 5.067,5.865 3.15,7.642 1.763,8.937 1.763,13.329 v 8.702 c 0,0.486 -0.393,0.881 -0.882,0.881"
           style="fill:#000000;fill-opacity:1;fill-rule:nonzero;stroke:none"
           id="path102" />
      </g>
    </g>
  </g>
</svg>
